<svg width="157" height="70" viewBox="0 0 157 70" fill="none" xmlns="http://www.w3.org/2000/svg">
<g clip-path="url(#clip0_313_841)">
<path d="M152.514 69.9999H157V39.3001L156.919 39.2377L142.803 28.1901L138.317 24.6797V70.0013H142.803M142.803 65.6789V33.8534L152.514 41.4544V65.6789H142.803Z" fill="#073762"/>
<path d="M132.869 0V70H98.0977V46.1684L102.584 42.6579L117.147 31.2592V36.9211L102.584 48.3212V65.5568H128.383V9.17371L117.156 17.9629V27.0728L112.67 30.5832V15.81L117.156 12.2996L128.383 3.5118L132.869 0Z" fill="#073762"/>
<path d="M119.461 50.0728H116.493V53.0127H119.461V50.0728Z" fill="#FBB040"/>
<path d="M114.472 50.0728H111.504V53.0127H114.472V50.0728Z" fill="#FBB040"/>
<path d="M119.461 54.8506H116.493V57.7905H119.461V54.8506Z" fill="#FBB040"/>
<path d="M114.472 54.8506H111.504V57.7905H114.472V54.8506Z" fill="#FBB040"/>
</g>
<path d="M11.1051 45.94C13.8304 45.94 15.9304 47.0227 17.4051 49.188C18.5624 50.8867 19.1411 52.94 19.1411 55.348C19.1411 58.1107 18.3851 60.3227 16.8731 61.984C15.4357 63.552 13.5131 64.336 11.1051 64.336C8.3424 64.336 6.2424 63.328 4.80507 61.312C3.64773 59.7253 3.06907 57.7373 3.06907 55.348C3.06907 52.548 3.82507 50.2613 5.33707 48.488C6.7744 46.7893 8.69707 45.94 11.1051 45.94ZM11.1051 61.256C12.4491 61.256 13.4851 60.752 14.2131 59.744C14.9411 58.7173 15.3051 57.252 15.3051 55.348C15.3051 53.3133 14.9037 51.7267 14.1011 50.588C13.3544 49.58 12.3557 49.076 11.1051 49.076C9.76107 49.076 8.71573 49.6267 7.96907 50.728C7.24107 51.8293 6.87707 53.3693 6.87707 55.348C6.87707 59.2867 8.2864 61.256 11.1051 61.256ZM31.5534 54.368C30.6387 53.7707 29.5934 53.472 28.4174 53.472C27.5214 53.472 27.0734 53.8547 27.0734 54.62C27.0734 55.3293 27.68 55.8333 28.8934 56.132C30.4054 56.5053 31.432 56.9253 31.9734 57.392C32.7574 58.064 33.1494 59.072 33.1494 60.416C33.1494 61.6107 32.72 62.5627 31.8614 63.272C31.0214 63.9813 29.8827 64.336 28.4454 64.336C26.4107 64.336 24.6934 63.7573 23.2934 62.6L24.5814 60.64C25.552 61.4053 26.7187 61.788 28.0814 61.788C28.6227 61.788 29.0614 61.6573 29.3974 61.396C29.7334 61.1347 29.9014 60.7893 29.9014 60.36C29.9014 59.576 29.2387 59.0627 27.9134 58.82C25.076 58.2787 23.6574 56.8973 23.6574 54.676C23.6574 53.612 24.0867 52.7253 24.9454 52.016C25.8227 51.3067 26.9147 50.952 28.2214 50.952C29.9947 50.952 31.5347 51.4653 32.8414 52.492L31.5534 54.368ZM43.2845 50.952C45.3752 50.952 46.9992 51.6893 48.1565 53.164C49.1272 54.396 49.6125 55.8987 49.6125 57.672C49.6125 59.744 48.8938 61.424 47.4565 62.712C46.2618 63.7947 44.8712 64.336 43.2845 64.336C41.4365 64.336 39.8872 63.6453 38.6365 62.264C37.5165 61.0133 36.9565 59.4827 36.9565 57.672C36.9565 55.6187 37.5818 53.9573 38.8325 52.688C39.9712 51.5307 41.4552 50.952 43.2845 50.952ZM43.2845 61.704C45.0952 61.704 46.0005 60.36 46.0005 57.672C46.0005 54.872 45.0952 53.472 43.2845 53.472C41.4738 53.472 40.5685 54.872 40.5685 57.672C40.5685 60.36 41.4738 61.704 43.2845 61.704ZM62.8375 62.544C61.9041 63.7387 60.6255 64.336 59.0015 64.336C57.3961 64.336 56.2481 63.9253 55.5575 63.104C54.8855 62.264 54.5495 60.864 54.5495 58.904V51.288H58.0215V57.98C58.0215 59.2493 58.1895 60.1453 58.5255 60.668C58.8615 61.172 59.4401 61.424 60.2615 61.424C60.6161 61.424 61.0175 61.3307 61.4655 61.144C61.9135 60.9573 62.1841 60.7613 62.2775 60.556V51.288H65.8055V64H63.1735L62.8655 62.544H62.8375ZM75.1039 45.94V64H71.5759V47.788L75.1039 45.94Z" fill="#073762"/>
<path d="M18.8301 24.676C18.8301 27.0653 18.0088 28.988 16.3661 30.444C14.9101 31.7133 13.0808 32.348 10.8781 32.348C8.22746 32.348 6.17413 31.4707 4.71813 29.716C3.59813 28.372 3.03813 26.776 3.03813 24.928C3.03813 23.472 3.37413 22.184 4.04613 21.064L7.51813 20.28C6.75279 21.4933 6.37013 22.884 6.37013 24.452C6.37013 25.8333 6.77146 26.9253 7.57413 27.728C8.39546 28.5493 9.49679 28.96 10.8781 28.96C12.2408 28.96 13.3235 28.5773 14.1261 27.812C14.9288 27.0467 15.3301 26.0013 15.3301 24.676V10.816L18.8301 8.94V24.676ZM37.1598 23.612V27H33.7158C33.5852 28.68 32.8385 30.024 31.4758 31.032C30.3558 31.8533 29.0492 32.264 27.5558 32.264C26.3798 32.264 25.2318 31.9467 24.1118 31.312V28.26C25.1198 28.8387 26.1278 29.128 27.1358 29.128C27.9198 29.128 28.6105 28.9133 29.2078 28.484C29.8238 28.0547 30.1598 27.5413 30.2158 26.944C30.0665 26.9253 29.8332 26.9067 29.5158 26.888C29.1985 26.8507 28.9558 26.8227 28.7878 26.804C26.8652 26.5987 25.3812 25.8427 24.3358 24.536C23.4585 23.4347 23.0198 22.1 23.0198 20.532C23.0198 18.4787 23.5798 16.8547 24.6998 15.66C25.6892 14.6147 26.9958 14.092 28.6198 14.092C30.2812 14.092 31.5785 14.624 32.5118 15.688C33.3145 16.6027 33.7158 17.7973 33.7158 19.272V23.612H37.1598ZM30.2158 19.216C30.2158 17.984 29.6838 17.368 28.6198 17.368C27.2012 17.368 26.4918 18.3853 26.4918 20.42C26.4918 22.2307 27.3132 23.2387 28.9558 23.444C29.2172 23.5 29.6372 23.5467 30.2158 23.584V19.216ZM35.4842 27V23.612H40.4122V27H35.4842ZM48.1741 23.584C49.0701 20.8587 50.3768 18.6467 52.0941 16.948C53.9981 15.044 56.1821 14.092 58.6461 14.092C60.8488 14.092 62.6128 14.8573 63.9381 16.388C65.0581 17.676 65.6181 19.272 65.6181 21.176V21.792C65.6181 23.4907 65.0861 24.816 64.0221 25.768C63.1075 26.5893 61.9221 27 60.4661 27H48.3701C47.0075 27 45.8781 26.636 44.9821 25.908C44.0861 26.636 42.9568 27 41.5941 27H38.7381V23.612H41.2581C41.9675 23.612 42.4715 23.4627 42.7701 23.164C43.0688 22.8467 43.2181 22.324 43.2181 21.596V17.9L46.7461 16.052V21.596C46.7461 22.7907 47.2221 23.4533 48.1741 23.584ZM62.0901 21.568V21.176C62.0901 20.056 61.7728 19.1413 61.1381 18.432C60.5035 17.7227 59.6821 17.368 58.6741 17.368C57.2181 17.368 55.8555 17.928 54.5861 19.048C53.3355 20.168 52.3461 21.6893 51.6181 23.612H60.3261C60.9981 23.612 61.4555 23.472 61.6981 23.192C61.9595 22.8933 62.0901 22.352 62.0901 21.568ZM68.8974 7.372L69.7934 5.748H70.6334C70.4281 5.37467 70.3254 4.992 70.3254 4.6C70.3254 4.00267 70.5401 3.48933 70.9694 3.06C71.4174 2.63067 71.9494 2.416 72.5654 2.416C73.1254 2.416 73.6481 2.612 74.1334 3.004V4.628C73.6854 4.236 73.2374 4.04 72.7894 4.04C72.1734 4.04 71.8654 4.32 71.8654 4.88C71.8654 5.16 71.9867 5.44933 72.2294 5.748H75.0014L74.1054 7.372H68.8974ZM69.9614 27V10.816L73.4894 8.94V27H69.9614Z" fill="#073762"/>
<defs>
<clipPath id="clip0_313_841">
<rect width="58.9024" height="70" fill="white" transform="translate(98.0977)"/>
</clipPath>
</defs>
</svg>
